<svg xmlns="http://www.w3.org/2000/svg" viewBox="0 0 512 512" role="img" aria-label="LekkerLedger logo option D" fill="none">
  <ellipse cx="256" cy="432" rx="150" ry="22" fill="#101828" opacity=".05" />
  <g transform="translate(256 256) rotate(-5) translate(-256 -256)">
    <rect x="136" y="118" width="234" height="298" rx="18" fill="#D5D0C6" />
    <rect x="128" y="110" width="234" height="298" rx="18" fill="#E2DCD2" />
    <path d="M143 96h181c11 0 20 9 20 20v17l53 52v209c0 14-11 25-25 25H143c-14 0-25-11-25-25V121c0-14 11-25 25-25Z" fill="#ECE9DA" />
    <path d="M344 133h37c9 0 16 7 16 16v36Z" fill="#007A4D" />
    <path d="M344 96h37c10 0 16 6 16 16v21L344 96Z" fill="#45B17A" />
    <path d="M384 178 370 418h13c8 0 14-7 14-15V187c0-4-4-7-13-9Z" fill="#C8C2B7" opacity=".68" />
    <g fill="#A9A79D">
      <rect x="160" y="178" width="84" height="14" rx="7" />
      <rect x="256" y="178" width="84" height="14" rx="7" />
      <rect x="160" y="224" width="84" height="14" rx="7" />
      <rect x="256" y="224" width="84" height="14" rx="7" />
      <rect x="160" y="270" width="84" height="14" rx="7" />
      <rect x="256" y="270" width="84" height="14" rx="7" />
      <rect x="160" y="316" width="84" height="14" rx="7" />
      <rect x="256" y="316" width="84" height="14" rx="7" />
    </g>
    <path d="M158 206h183" stroke="#DBD5C9" stroke-width="2.6" opacity=".82" />
    <path d="M158 252h183" stroke="#DBD5C9" stroke-width="2.6" opacity=".82" />
    <path d="M158 298h183" stroke="#DBD5C9" stroke-width="2.6" opacity=".82" />
    <path d="M158 344h98" stroke="#C47A1C" stroke-linecap="round" stroke-width="3" opacity=".75" />
    <g fill="#CEC9BF" opacity=".95">
      <path d="M233 355c-17-2-31-10-42-22 14-12 30-15 46-9 1 11 0 21-4 31Z" />
      <path d="M262 348c-13-12-18-27-15-44 16 2 29 11 33 27-4 6-8 11-18 17Z" />
      <path d="M287 360c-16 0-30-6-41-18 14-13 29-17 44-11 3 9 2 19-3 29Z" />
    </g>
    <path d="M322 418c8-33 32-55 71-57 1 37-12 65-42 80-11 5-19 2-29-23Z" fill="#007A4D" />
    <path d="M322 418c15-11 27-22 37-36 9-12 19-22 34-31" stroke="#176241" stroke-linecap="round" stroke-width="3" />
    <path d="M352 385c10 1 20 0 29-3" stroke="#176241" stroke-linecap="round" stroke-width="2.1" opacity=".84" />
    <path d="M344 404c11 1 22 0 31-4" stroke="#176241" stroke-linecap="round" stroke-width="2.1" opacity=".84" />
    <path d="M368 422c8-14 20-22 36-25-2 15-10 25-24 31-6 3-10 1-12-6Z" fill="#DCD8CF" opacity=".95" />
  </g>
</svg>
